Patient4_TMGait_0pt4_03_left_07_EMG.mot
version=1
nRows=39
nColumns=33
inDegrees=no
endheader
time	1LAddLong	2LGlutMax	3LGlutMed	4LIliopsoas	5LSemiMemb	6LBicFemLong	7LRecFem	8LVastMed	9LVastLat	10LGasMed	11LTibAnt	12lTibPost	13LPeroneusLong	14LSol	15LExtDigLong	16LFlexDigLong	17RAddLong	18RGlutMax	19RGlutMed	20RIliopsoas	21RSemiMemb	22RBicFemLong	23RRecFem	24RVastMed	25RVastLat	26RGasMed	27RTibAnt	28RTibPost	29RPeroneusLong	30RSol	31RExtDigLong	32RFlexDigLong
10.123	0.019379	-0.014191	0.010223	0.022278	0.036926	-0.012817	-0.013885	0.019226	0.037842	-0.079498	0.010834	-0.002899	-0.01236	0.023041	-0.012512	0.003815	-0.002441	0.068512	-0.020752	-0.070648	-0.004578	-0.046844	-0.24704	-0.25131	0.084534	-0.012665	0.56976	-0.00061	-0.053864	0.30182	-0.002899	-0.008087
10.124	0.027008	-0.044861	0.13596	0.016479	0.023499	-0.012665	-0.029297	0.009918	0.031281	-0.07843	0.006256	-0.005341	-0.010529	0.005341	0.000153	-0.003357	0.000916	-0.019836	-0.47974	-0.027771	-0.001221	-0.01297	-0.15396	-0.077972	0.041809	0.002441	1.0901	-0.007782	0.18463	0.15427	-0.001678	-0.009766
10.125	0.027466	-0.070648	0.068054	0.007935	0.005188	0.021515	-0.012817	0.007477	0.031128	-0.069885	0.002441	-0.00946	0.022278	-0.001221	-0.002441	-0.008087	0.010834	-0.02243	-0.32333	0.068817	-0.003967	-0.005188	-0.033417	-0.066986	0.00824	-0.012207	1.0457	0.001068	0.015564	0.02655	0.001678	-0.008545
10.126	0.019989	-0.049744	0.010834	-0.005798	0.014343	0.002289	-0.03006	0.016937	0.057526	-0.028534	-0.010071	-0.00473	0.033722	-0.007172	-0.005493	-0.009613	0.014648	-0.087128	-0.66971	0.13306	-0.001526	-0.041199	-0.033264	-0.036774	-0.032501	-0.005951	-0.30899	-0.002594	-0.027771	-0.048676	0.000763	-0.007019
10.127	0.013275	-0.035858	-0.049591	0.012207	0.005035	-0.005798	-0.021362	0.012512	0.054321	0.022736	-0.067596	-0.010071	0.015869	-0.007935	-0.008698	-0.00824	-0.001221	-0.090485	-0.86792	0.058136	0.025635	-0.020294	-0.094147	-0.026855	-0.005493	-0.00946	-0.52414	0.002441	-0.20371	-0.085144	0.003967	0.000458
10.128	-0.00061	-0.029449	-0.03479	0.002289	-0.000305	-0.015869	-0.019073	0.016022	0.042267	0.029907	-0.10757	-0.013275	0.007019	-0.019989	-0.005188	-0.000458	-0.012054	-0.062408	-0.6752	0.017548	0.024109	-0.015411	-0.062866	0.020599	0.010071	-0.017853	0.004883	0.000916	-0.32608	-0.046539	0.001068	-0.005951
10.129	0.008392	-0.057831	-0.033722	-0.004578	-0.014496	-0.01297	-0.010223	0.020752	0.026855	0.032501	-0.073395	-0.005951	-0.033417	-0.022278	-0.006409	-0.002747	-0.007629	-0.15289	-0.62286	0.006104	0.058136	-0.036926	0.011902	0.000153	0.028839	-0.011292	0.27695	-0.004578	-0.20981	0.05249	0.00061	-0.000916
10.13	-0.000305	-0.036469	-0.009308	0.00061	0.003815	-0.016632	0.000305	0.014801	0.024109	0.018311	-0.032349	-0.023041	-0.076904	-0.029755	-0.012207	-0.002899	0.00473	-0.20554	-0.56641	-0.033569	0.041809	-0.032806	0.053558	0.008698	0.007324	-0.007324	-0.14771	-0.005035	-0.13702	0.24841	0.000916	-0.007935
10.131	-0.002899	-0.054932	-0.030212	0.00824	0.003357	-0.014038	-0.002136	0.015259	0.02655	-0.005341	0.04837	-0.015106	-0.061188	-0.024719	-0.006256	-0.005188	0.003967	-0.13534	-0.65079	-0.008087	0.015411	-0.054016	0.14557	0.010223	0.032959	-0.000305	-0.92773	-0.001068	0.051422	0.12955	-0.001678	0.003357
10.132	0.003662	-0.052032	-0.072784	0.006561	0.019226	-0.001678	-0.003357	0.018311	0.027771	-0.029449	0.086212	-0.011597	-0.057983	-0.025787	-0.007019	0.001373	0.001068	-0.052185	-0.3746	0.039825	-0.031433	-0.000305	0.18448	0.001831	0.05188	-0.009918	-0.54565	-0.001831	0.056305	0.059357	0.00061	-0.012817
10.133	0.009308	-0.053253	-0.086517	-0.000305	0.028381	-0.003052	-0.014191	0.023193	0.031281	-0.029602	0.028534	-0.014191	-0.042572	-0.020447	0.017395	-0.000916	-0.003357	-0.084991	-0.1329	0.050812	-0.033417	0.021667	0.20142	-0.001678	0.007935	-0.00885	-0.83145	-0.003357	0.071716	0.039673	-0.002441	-0.011292
10.134	0.006104	-0.058899	-0.081177	-0.004425	0.00473	-0.002899	0.000305	0.015411	0.026093	-0.0177	-0.036926	-0.010223	-0.06424	-0.002441	0.005646	-0.011597	-0.003357	-0.10757	-0.14297	0.014343	-0.013428	0.048981	0.24353	-0.028076	-0.046234	-0.009003	-0.22919	-0.003815	0.01358	-0.007935	-0.001526	-0.013885
10.135	0.000763	-0.068054	-0.027161	-0.003357	-0.020752	-0.011902	0.01358	0.020294	0.033875	-0.043488	0.0383	-0.016937	-0.035858	-0.020142	-0.019226	0.002136	-0.001526	-0.10742	-0.095673	-0.090485	-0.007324	0.027313	0.35294	-0.046387	-0.051727	-0.003357	-0.036011	-0.000763	0.022125	-0.022583	-0.00473	-0.014191
10.136	-0.004425	-0.094604	-0.059967	0.009918	-0.017242	-0.007782	0.006866	0.013123	0.028992	-0.032654	0.18143	-0.016937	-0.070801	-0.032654	0.065002	-0.000153	-0.001984	-0.062714	-0.18509	-0.11581	-0.005493	0.02655	0.26352	-0.1326	-0.070496	-0.00946	0.16617	-0.001526	-0.042877	0.074005	-0.003357	-0.018921
10.137	0.000763	-0.06546	-0.057068	0.007782	0.022278	-0.038757	-0.007629	0.011597	0.038452	-0.02655	0.046234	-0.012817	-0.085907	-0.037231	-0.010071	-0.012665	-0.004578	-0.027313	-0.26413	-0.10437	-0.001526	0.02594	-0.093231	-0.13763	-0.094757	-0.018311	0.28503	-0.003357	-0.078888	0.006866	-0.003967	-0.014343
10.138	0.002899	-0.07431	-0.039825	0.008545	0.047302	-0.001068	-0.003815	0.012512	0.039978	-0.05249	0.035858	-0.015259	-0.065918	-0.065002	-0.078735	-0.011444	-0.01358	-0.005493	-0.18967	-0.058289	0.011444	0.051575	-0.20279	-0.18265	-0.17853	-0.015717	0.07431	-0.002289	-0.019684	-0.000458	-0.002441	-0.011597
10.139	0.001068	-0.094147	0.011902	0.009766	0.028839	0.055389	-0.011444	0.010986	0.0383	-0.086517	0.018005	-0.017853	-0.054016	-0.039063	-0.037537	-0.005646	0.003662	0.018616	-0.10895	0.064697	-0.007019	0.016632	-0.038757	-0.22781	-0.14252	-0.014343	0.018616	-0.00351	0.017242	-0.037231	-0.002136	-0.018311
10.14	0.003357	-0.10132	-0.055389	-0.005493	0.002136	0.068359	-0.007935	0.020142	0.037537	-0.059662	0.00061	-0.018616	-0.050659	-0.035858	-0.005951	0.006104	0.00351	-0.040436	-0.27222	0.1622	-0.005493	0.036163	-0.053406	-0.24872	-0.11719	-0.007324	-0.00885	0.000305	0.16495	-0.1413	-0.001068	-0.009918
10.141	-0.006714	-0.089874	-0.12207	0.005951	-0.016632	0.070648	-0.017395	0.017395	0.046539	-0.033722	-0.001068	-0.020294	-0.04837	-0.041809	0.013428	0.000458	-0.010071	-0.071716	-0.3685	0.11932	0.004883	0.038605	-0.16846	0.00885	-0.015869	0.001984	-0.14221	-0.001831	0.14267	-0.19287	-0.007629	-0.007629
10.142	-0.002747	-0.080566	-0.18631	-0.011597	-0.036621	0.054626	0.005798	0.009613	0.036316	0.001068	0.001068	-0.009308	-0.037537	-0.033264	0.015259	-0.010223	-0.024567	-0.091095	-0.44067	0.049744	0.012817	0.019684	-0.18356	0.16281	0.084991	-0.009003	-0.1738	-0.001373	0.12024	-0.14603	0.000916	-0.015869
10.143	-0.014038	-0.059357	-0.087433	0.007477	-0.012512	0.040894	0.00824	0.02182	0.027008	0.000763	0.010834	-0.020142	-0.04425	-0.045624	0.00351	-0.005341	0.012207	-0.013275	-0.6282	0.068665	-0.002136	-0.02182	-0.069275	0.12314	0.19318	-0.004883	-0.12421	0.001678	0.039368	-0.14038	0.002594	-0.002289
10.144	-0.00885	-0.062103	-0.044098	0.00351	-0.064392	0.04837	0.014801	0.020599	0.021973	0.004883	0.038452	-0.023499	-0.063934	-0.039673	-0.015106	-0.009613	0.019836	0.002594	-0.74341	0.04715	-0.013733	-0.026855	-0.023956	-0.066071	0.21927	0.000916	-0.1358	-0.000763	0.14618	-0.27008	-0.00473	0.002747
10.145	-0.003204	-0.087738	-0.037689	0.00473	-0.06012	0.028381	0.001373	0.017395	0.010986	-0.021973	0.005951	-0.022888	-0.03067	-0.036621	0.002594	-0.0177	0.003967	-0.089264	-0.17624	-0.013275	-0.015259	-0.016479	-0.14572	-0.13199	0.14145	-0.01236	0.4187	0.001526	-0.070953	-0.1503	-0.002289	-0.010681
10.146	0.005798	-0.077972	0.023956	0.007782	-0.010681	0.017853	-0.00412	0.011902	0.026703	-0.052185	-0.001373	-0.016327	-0.033875	-0.023804	-0.007324	0.007324	-0.015564	-0.13519	0.6282	-0.00946	-0.053406	0.02121	-0.16144	-0.069885	0.11993	-0.010071	0.15411	-0.001831	0.055237	-0.11551	-0.002441	-0.004425
10.147	0.024109	-0.15671	0.1683	-0.002441	0.009918	-0.018921	-0.024567	0.016174	0.024719	-0.013885	-0.002136	-0.021973	-0.068665	-0.041962	-0.016022	-0.003662	-0.013123	-0.24063	0.44296	-0.019989	-0.0737	0.029755	-0.21088	-0.004425	0.30182	0.002289	-0.27557	0.002899	0.36499	-0.13031	-0.000458	-0.006714
10.148	0.025787	-0.15518	0.21088	-0.007019	0.008698	-0.062561	-0.018768	0.005188	0.023956	-0.015259	0.005493	-0.00946	-0.10819	-0.025024	0.000153	0.005341	0.003052	-0.24506	0.16663	-0.012665	-0.023651	0.023041	0.066833	0.11215	0.39002	0.003815	-0.33341	-0.000153	0.45288	-0.10269	-0.002136	-0.00946
10.149	0.019226	-0.15182	0.13107	0.007935	0.053864	-0.030365	-0.027161	0.01358	0.017548	-0.068054	0.005798	-0.016022	-0.074158	-0.026093	0.008392	-0.000916	-0.010376	-0.23056	-0.28503	-0.040283	0.13351	0.024414	0.13138	0.19379	0.20294	0.002899	-0.31738	-0.000305	-0.37872	-0.080109	-0.001984	-0.001831
10.15	0.021362	-0.1619	0.089874	0.005035	0.051727	-0.019836	-0.016022	0.009003	0.009918	-0.013275	-0.000916	-0.013885	-0.078125	-0.062256	0.008698	-0.003204	-0.00824	-0.28061	-0.74982	-0.025635	0.086212	0.023041	0.18509	0.15335	0.17349	-0.001526	-0.40329	0.006409	-0.63843	-0.03006	-0.004272	-0.001221
10.151	0.002136	-0.1207	0.027313	-0.003204	0.03067	-0.007935	-0.017242	0.020599	0.001678	-0.02121	0.006866	-0.011292	-0.04776	-0.063934	0.010834	-0.004578	-0.014648	-0.24338	-1.0394	-0.004883	-0.000458	-0.012207	0.05661	0.2034	0.15274	0.004883	0.012665	-0.000153	-0.28198	-0.054321	0.002899	-0.005646
10.152	0.008392	-0.12436	-0.049438	-0.00473	0.010376	0.019684	-0.005341	0.019989	0.006104	-0.027161	0.00351	-0.016327	-0.062103	-0.064545	0.008392	-0.009766	0.007324	-0.21301	-0.98221	-0.018005	-0.048828	-0.008545	-0.18677	0.1355	0.054779	-0.004578	0.31525	-0.001678	-0.28427	0.066833	-0.002441	-0.013428
10.153	0.008545	-0.092926	-0.16037	0.011139	-0.023804	-0.003662	-0.025482	0.015869	-0.009003	-0.017853	0.010071	0.000153	-0.073853	-0.05249	0.003052	0.009003	0.023499	-0.2356	0.44174	-0.16541	-0.019379	-0.012665	-0.37277	0.16296	-0.06073	-0.006104	1.0579	-0.001831	-0.003967	0.091858	-0.003662	-0.009155
10.154	0.005646	-0.10849	-0.15442	0.010071	-0.037079	0.005493	-0.010986	0.021362	-0.001678	-0.010376	0.007935	-0.011444	-0.075531	-0.029144	0.007324	-0.006409	0.029449	-0.28534	1.5862	-0.23621	0.061646	-0.012054	-0.12344	0.088806	-0.22308	-0.005341	0.47028	-0.006104	-0.035553	0.14358	-0.000153	-0.007019
10.155	0.013275	-0.11337	-0.010681	0.015869	-0.028229	-0.002747	-0.020447	0.01236	-0.007324	-0.024872	0.012512	-0.003967	-0.06546	-0.049438	0	-0.006256	0.039215	-0.30563	0.66315	-0.080414	0.010071	-0.012512	0.014954	0.05188	-0.35751	-0.013123	-0.011597	-0.008698	-0.16327	0.21088	-0.001831	-0.006409
10.156	0.011139	-0.13626	-0.058594	0.02121	0.02594	0.003204	-0.036926	0.019073	-0.011597	-0.00412	-0.001831	-0.006104	-0.044861	-0.045929	-0.002594	-0.010376	0.023346	-0.26367	-0.49545	0.11032	-0.077515	-0.005646	-0.17944	-0.15488	-0.39215	-0.012054	0.26855	-0.000153	-0.19852	0.19211	0.001984	-0.010071
10.157	0.00885	-0.14221	-0.076904	0.009766	0.052032	-0.00061	-0.044403	0.020447	0.016937	-0.021057	0.007019	0.016174	-0.05188	-0.13321	0.014648	-0.015411	0.016479	-0.2153	-0.4306	0.20309	-0.001526	-0.047302	-0.12238	-0.16983	-0.18265	-0.017548	0.070953	-0.000916	-0.1207	0.10788	0.008392	-0.010681
10.158	0.013733	-0.15976	-0.023651	0.00061	0.025787	-0.016937	-0.039825	0.016632	0.006409	-0.02655	-0.002747	-0.01236	-0.055389	-0.08606	0.044556	-0.017242	0.02655	-0.25543	0.41916	0.06546	0.04715	-0.07782	-0.085144	-0.11765	-0.075836	-0.021667	0.5098	-0.001221	-0.25589	0.079803	-0.001678	-0.010986
10.159	0.005341	-0.10254	0.16678	-0.014801	0.013428	-0.039825	-0.050507	0.019684	-0.007172	-0.034027	-0.004425	-0.000458	-0.067596	-0.045013	-0.059967	-0.009918	0.02121	-0.22522	0.80414	-0.10437	-0.054321	-0.031891	-0.089417	-0.069275	-0.083008	-0.010834	1.0284	-0.001984	-0.28564	0.007782	0.000153	-0.005798
10.16	0.015869	-0.13626	0.21362	-0.012512	0.051727	-0.039673	-0.045166	0.018463	-0.000305	-0.046082	-0.077209	-0.006409	-0.049744	-0.022888	-0.076752	-0.003967	0.005188	-0.31845	0.059204	-0.030212	0.054474	-0.011444	-0.071564	-0.086212	-0.093231	-0.006256	0.63431	-0.000763	-0.16556	-0.071106	-0.003052	-0.00946
10.161	0.014496	-0.19898	0.10666	-0.014191	0.066833	-0.036011	-0.055389	0.018616	-0.003967	-0.040588	-0.062866	-0.008087	-0.068817	-0.04425	0.18646	-0.013428	0.018463	-0.38025	-0.7785	-0.003815	0.072174	-0.011902	-0.054626	-0.076752	-0.098419	-0.007477	-0.06897	-0.000153	-0.046082	-0.042572	-0.002747	0.000458
